<svg xmlns="http://www.w3.org/2000/svg" width="70" height="10" viewBox="0 0 180 26.9"><path d="M12.508-25.21a12.122,12.122,0,0,1,3.236.42A7.83,7.83,0,0,1,18.421-23.5a6.289,6.289,0,0,1,1.837,2.235,7.289,7.289,0,0,1,.68,3.289,6.771,6.771,0,0,1-1.413,4.521A7.658,7.658,0,0,1,15.9-11.071l5.283,9.2a.875.875,0,0,1,.1.389.741.741,0,0,1-.227.542.741.741,0,0,1-.544.22h-1.5a1.361,1.361,0,0,1-1.032-.35,3.328,3.328,0,0,1-.472-.595l-5.073-8.922H6.42v8.922A.908.908,0,0,1,6.14-1a.908.908,0,0,1-.665.28H4.041A.908.908,0,0,1,3.376-1,.908.908,0,0,1,3.1-1.663v-22.6a.908.908,0,0,1,.28-.665.908.908,0,0,1,.665-.28ZM6.42-13.734h5.913a6.584,6.584,0,0,0,3.9-1,3.718,3.718,0,0,0,1.382-3.236,3.53,3.53,0,0,0-1.382-3.166,6.965,6.965,0,0,0-3.9-.927H6.42Zm18.893-4.234a.908.908,0,0,1,.28-.665.908.908,0,0,1,.665-.28h1.295a.908.908,0,0,1,.665.28.908.908,0,0,1,.28.665v9.233A5.823,5.823,0,0,0,29.7-4.7a4.509,4.509,0,0,0,3.516,1.33A4.543,4.543,0,0,0,36.685-4.7a5.661,5.661,0,0,0,1.263-4.024V-17.96a.908.908,0,0,1,.28-.665.908.908,0,0,1,.665-.28h1.295a.908.908,0,0,1,.665.28.908.908,0,0,1,.28.665v16.3a.908.908,0,0,1-.28.665.908.908,0,0,1-.669.28H38.889A.908.908,0,0,1,38.224-1a.908.908,0,0,1-.28-.665V-2.748a6.811,6.811,0,0,1-1.889,1.627A6.4,6.4,0,0,1,32.7-.369a8.078,8.078,0,0,1-3.013-.542A6.722,6.722,0,0,1,27.339-2.45a6.677,6.677,0,0,1-1.5-2.447,9.69,9.69,0,0,1-.525-3.3Zm29.67-1.295a8.037,8.037,0,0,1,3.061.577,7.264,7.264,0,0,1,2.467,1.644,7.97,7.97,0,0,1,1.679,2.607,10.625,10.625,0,0,1,.735,3.464q.035.525.035,1.137T62.925-8.7a10.626,10.626,0,0,1-.735,3.464,8.175,8.175,0,0,1-1.679,2.624A7.143,7.143,0,0,1,58.045-.946a8.037,8.037,0,0,1-3.061.577,7.067,7.067,0,0,1-3.429-.717,6.114,6.114,0,0,1-2-1.662v1.085a.908.908,0,0,1-.28.665.908.908,0,0,1-.661.28H47.321A.908.908,0,0,1,46.656-1a.908.908,0,0,1-.28-.665V-24.615a.908.908,0,0,1,.28-.665.908.908,0,0,1,.665-.28h1.295a.908.908,0,0,1,.665.28.908.908,0,0,1,.28.665v7.732a6.552,6.552,0,0,1,1.959-1.627A6.874,6.874,0,0,1,54.983-19.262ZM49.556-8.311A5.411,5.411,0,0,0,51.1-4.7a4.851,4.851,0,0,0,3.534,1.33,4.606,4.606,0,0,0,3.621-1.473,6.477,6.477,0,0,0,1.487-3.985q.035-.98,0-1.959a6.477,6.477,0,0,0-1.487-3.985,4.606,4.606,0,0,0-3.621-1.469A4.742,4.742,0,0,0,51.1-14.908a5.977,5.977,0,0,0-1.543,3.833,10.9,10.9,0,0,0-.07,1.382,10.9,10.9,0,0,0,.07,1.382Zm16.9-3.254a9.224,9.224,0,0,1,.77-3.013,8.52,8.52,0,0,1,1.644-2.449,7.229,7.229,0,0,1,2.43-1.644,8.106,8.106,0,0,1,3.166-.595,8.8,8.8,0,0,1,3.376.612,6.962,6.962,0,0,1,2.537,1.767,7.872,7.872,0,0,1,1.609,2.8,11.353,11.353,0,0,1,.56,3.674v.949a.908.908,0,0,1-.28.665.908.908,0,0,1-.665.28H69.577v.21a4.941,4.941,0,0,0,1.448,3.656,4.885,4.885,0,0,0,3.446,1.277,6.036,6.036,0,0,0,2.886-.542,6.052,6.052,0,0,0,1.555-1.207,2.034,2.034,0,0,1,.486-.389,1.458,1.458,0,0,1,.63-.1h1.05a1.028,1.028,0,0,1,.7.28.68.68,0,0,1,.245.665,3.72,3.72,0,0,1-.589,1.386,5.221,5.221,0,0,1-1.417,1.4A8.5,8.5,0,0,1,77.708-.806a10.758,10.758,0,0,1-3.236.437,7.775,7.775,0,0,1-3.145-.612,7.562,7.562,0,0,1-2.436-1.681,8.379,8.379,0,0,1-1.662-2.519,9.932,9.932,0,0,1-.77-3.166,14.85,14.85,0,0,1,0-3.217Zm3.11.1H79.4v-.1a4.479,4.479,0,0,0-1.347-3.411,5,5,0,0,0-3.586-1.277,5.275,5.275,0,0,0-1.889.332,4.725,4.725,0,0,0-1.539.945,4.405,4.405,0,0,0-1.05,1.487,5.161,5.161,0,0,0-.42,1.924Zm33.382,9.8a.908.908,0,0,1-.28.665.908.908,0,0,1-.665.28h-1.295a.908.908,0,0,1-.665-.28.908.908,0,0,1-.28-.665V-10.9a5.562,5.562,0,0,0-1.295-4.024,4.8,4.8,0,0,0-3.6-1.33,4.836,4.836,0,0,0-3.551,1.33A5.426,5.426,0,0,0,89.971-10.9v9.233a.908.908,0,0,1-.28.665.908.908,0,0,1-.665.28H87.732A.908.908,0,0,1,87.071-1a.908.908,0,0,1-.28-.665v-16.3a.908.908,0,0,1,.28-.665.908.908,0,0,1,.665-.28H89.03a.908.908,0,0,1,.665.28.908.908,0,0,1,.28.665v1.085a6.5,6.5,0,0,1,1.977-1.627,6.894,6.894,0,0,1,3.446-.752,8.358,8.358,0,0,1,3.044.542,6.833,6.833,0,0,1,2.4,1.539,6.912,6.912,0,0,1,1.555,2.467,9.178,9.178,0,0,1,.56,3.289Z" transform="translate(-2.4 26.26)" fill="#fff" stroke="#fff" stroke-width="1.4"/></svg>