<svg xmlns="http://www.w3.org/2000/svg" width="384.108" height="34.98" viewBox="0 0 384.108 34.98"><path d="M12.2-18.72a.934.934,0,0,1,.684.288.934.934,0,0,1,.288.684V-16.6a.934.934,0,0,1-.288.684.934.934,0,0,1-.684.288H10.116q-4.14,0-4.14,4.14V-.972a.934.934,0,0,1-.288.684A.934.934,0,0,1,5,0H3.672a.934.934,0,0,1-.684-.288A.934.934,0,0,1,2.7-.972V-17.748a.934.934,0,0,1,.288-.684.934.934,0,0,1,.684-.288H5a.934.934,0,0,1,.684.288.934.934,0,0,1,.288.684v1.116A4.508,4.508,0,0,1,7.7-18.216a5.892,5.892,0,0,1,2.628-.5Zm3.924.972a.934.934,0,0,1,.288-.684.934.934,0,0,1,.684-.288h1.332a.934.934,0,0,1,.684.288.934.934,0,0,1,.288.684v9.5A5.991,5.991,0,0,0,20.646-4.1a4.639,4.639,0,0,0,3.618,1.368A4.674,4.674,0,0,0,27.828-4.1a5.825,5.825,0,0,0,1.3-4.14v-9.5a.934.934,0,0,1,.288-.684.934.934,0,0,1,.684-.288h1.332a.934.934,0,0,1,.684.288.934.934,0,0,1,.288.684V-.972a.934.934,0,0,1-.288.684A.934.934,0,0,1,31.428,0H30.1a.934.934,0,0,1-.684-.288.934.934,0,0,1-.288-.684V-2.088A7.008,7.008,0,0,1,27.18-.414,6.584,6.584,0,0,1,23.724.36a8.312,8.312,0,0,1-3.1-.558,6.916,6.916,0,0,1-2.412-1.584A6.87,6.87,0,0,1,16.668-4.3a9.97,9.97,0,0,1-.54-3.4ZM46.656-19.08a8.269,8.269,0,0,1,3.15.594,7.474,7.474,0,0,1,2.538,1.692,8.2,8.2,0,0,1,1.728,2.682,10.934,10.934,0,0,1,.756,3.564q.036.54.036,1.17t-.036,1.17a10.934,10.934,0,0,1-.756,3.564,8.411,8.411,0,0,1-1.728,2.7,7.35,7.35,0,0,1-2.538,1.71,8.269,8.269,0,0,1-3.15.594,7.271,7.271,0,0,1-3.528-.738,6.291,6.291,0,0,1-2.052-1.71V-.972a.934.934,0,0,1-.288.684A.934.934,0,0,1,40.1,0H38.772a.934.934,0,0,1-.684-.288A.934.934,0,0,1,37.8-.972V-24.588a.934.934,0,0,1,.288-.684.934.934,0,0,1,.684-.288H40.1a.934.934,0,0,1,.684.288.934.934,0,0,1,.288.684v7.956a6.742,6.742,0,0,1,2.016-1.674A7.073,7.073,0,0,1,46.656-19.08ZM41.076-7.812A5.568,5.568,0,0,0,42.66-4.1,4.991,4.991,0,0,0,46.3-2.736a4.739,4.739,0,0,0,3.726-1.512,6.664,6.664,0,0,0,1.53-4.1q.036-1.008,0-2.016a6.664,6.664,0,0,0-1.53-4.1A4.739,4.739,0,0,0,46.3-15.984,4.879,4.879,0,0,0,42.66-14.6a6.15,6.15,0,0,0-1.584,3.942A11.215,11.215,0,0,0,41-9.234,11.215,11.215,0,0,0,41.076-7.812ZM58.464-11.16a9.491,9.491,0,0,1,.792-3.1,8.766,8.766,0,0,1,1.692-2.52,7.438,7.438,0,0,1,2.5-1.692,8.341,8.341,0,0,1,3.258-.612,9.055,9.055,0,0,1,3.474.63,7.163,7.163,0,0,1,2.61,1.818,8.1,8.1,0,0,1,1.656,2.88,11.681,11.681,0,0,1,.576,3.78V-9a.934.934,0,0,1-.288.684.934.934,0,0,1-.684.288H61.668v.216A5.084,5.084,0,0,0,63.162-4.05a5.026,5.026,0,0,0,3.546,1.314,6.211,6.211,0,0,0,2.97-.558,6.227,6.227,0,0,0,1.6-1.242,2.093,2.093,0,0,1,.5-.4,1.5,1.5,0,0,1,.648-.108h1.08a1.058,1.058,0,0,1,.72.288.7.7,0,0,1,.252.684,3.827,3.827,0,0,1-.612,1.422,5.373,5.373,0,0,1-1.458,1.44A8.749,8.749,0,0,1,70.038-.09a11.069,11.069,0,0,1-3.33.45,8,8,0,0,1-3.24-.63A7.781,7.781,0,0,1,60.966-2a8.622,8.622,0,0,1-1.71-2.592,10.22,10.22,0,0,1-.792-3.258A15.28,15.28,0,0,1,58.464-11.16Zm3.2.108H71.784v-.108A4.609,4.609,0,0,0,70.4-14.67a5.142,5.142,0,0,0-3.69-1.314,5.428,5.428,0,0,0-1.944.342,4.862,4.862,0,0,0-1.584.972,4.533,4.533,0,0,0-1.08,1.53,5.31,5.31,0,0,0-.432,1.98ZM96.012-.972a.934.934,0,0,1-.288.684A.934.934,0,0,1,95.04,0H93.708a.934.934,0,0,1-.684-.288.934.934,0,0,1-.288-.684v-9.5a5.723,5.723,0,0,0-1.332-4.14A4.936,4.936,0,0,0,87.7-15.984a4.976,4.976,0,0,0-3.654,1.368,5.583,5.583,0,0,0-1.386,4.14v9.5a.934.934,0,0,1-.288.684A.934.934,0,0,1,81.684,0H80.352a.934.934,0,0,1-.684-.288.934.934,0,0,1-.288-.684V-17.748a.934.934,0,0,1,.288-.684.934.934,0,0,1,.684-.288h1.332a.934.934,0,0,1,.684.288.934.934,0,0,1,.288.684v1.116a6.687,6.687,0,0,1,2.034-1.674,7.093,7.093,0,0,1,3.546-.774,8.6,8.6,0,0,1,3.132.558,7.031,7.031,0,0,1,2.466,1.584,7.112,7.112,0,0,1,1.6,2.538,9.444,9.444,0,0,1,.576,3.384Zm5.94-8.28a.934.934,0,0,1-.684-.288.934.934,0,0,1-.288-.684v-1.152a.934.934,0,0,1,.288-.684.934.934,0,0,1,.684-.288h10.62a.934.934,0,0,1,.684.288.934.934,0,0,1,.288.684v1.152a.934.934,0,0,1-.288.684.934.934,0,0,1-.684.288Zm15.84-1.3a10.934,10.934,0,0,1,.756-3.564,8.2,8.2,0,0,1,1.728-2.682,7.474,7.474,0,0,1,2.538-1.692,8.269,8.269,0,0,1,3.15-.594,7.073,7.073,0,0,1,3.564.774,6.742,6.742,0,0,1,2.016,1.674v-1.116a.934.934,0,0,1,.288-.684.934.934,0,0,1,.684-.288h1.332a.934.934,0,0,1,.684.288.934.934,0,0,1,.288.684v17.5A8.246,8.246,0,0,1,132.7,5.706q-2.124,2.214-6.372,2.214a11.554,11.554,0,0,1-3.69-.519,8.3,8.3,0,0,1-2.52-1.306,5.44,5.44,0,0,1-1.476-1.718,4.26,4.26,0,0,1-.522-1.79.793.793,0,0,1,.27-.68,1,1,0,0,1,.7-.286h1.08a1.1,1.1,0,0,1,.666.2,1.883,1.883,0,0,1,.522.766q.108.214.342.588a2.791,2.791,0,0,0,.756.748,4.868,4.868,0,0,0,1.368.641,7.243,7.243,0,0,0,2.142.267,9.946,9.946,0,0,0,2.214-.234,4.9,4.9,0,0,0,1.782-.774,3.556,3.556,0,0,0,1.17-1.44,5.235,5.235,0,0,0,.414-2.2V-2.088a6.291,6.291,0,0,1-2.052,1.71,7.271,7.271,0,0,1-3.528.738,8.269,8.269,0,0,1-3.15-.594,7.474,7.474,0,0,1-2.538-1.692,8.2,8.2,0,0,1-1.728-2.682,10.934,10.934,0,0,1-.756-3.564q-.036-.54-.036-1.188T117.792-10.548Zm13.752-.108a5.6,5.6,0,0,0-1.53-3.942,5.063,5.063,0,0,0-3.69-1.386,4.8,4.8,0,0,0-3.744,1.512,6.448,6.448,0,0,0-1.512,4.1q-.036,1.008,0,2.016a6.448,6.448,0,0,0,1.512,4.1,4.8,4.8,0,0,0,3.744,1.512,5.027,5.027,0,0,0,3.69-1.4,5.624,5.624,0,0,0,1.53-3.924q.036-.54.036-1.3T131.544-10.656Zm8.5-7.092a.934.934,0,0,1,.288-.684.934.934,0,0,1,.684-.288h1.332a.934.934,0,0,1,.684.288.934.934,0,0,1,.288.684v9.5a5.991,5.991,0,0,0,1.242,4.14,4.639,4.639,0,0,0,3.618,1.368A4.674,4.674,0,0,0,151.74-4.1a5.825,5.825,0,0,0,1.3-4.14v-9.5a.934.934,0,0,1,.288-.684.934.934,0,0,1,.684-.288h1.332a.934.934,0,0,1,.684.288.934.934,0,0,1,.288.684V-.972a.934.934,0,0,1-.288.684A.934.934,0,0,1,155.34,0h-1.332a.934.934,0,0,1-.684-.288.934.934,0,0,1-.288-.684V-2.088a7.008,7.008,0,0,1-1.944,1.674,6.584,6.584,0,0,1-3.456.774,8.312,8.312,0,0,1-3.1-.558,6.916,6.916,0,0,1-2.412-1.584A6.87,6.87,0,0,1,140.58-4.3a9.97,9.97,0,0,1-.54-3.4ZM166.608-6.3a6.155,6.155,0,0,0,.126,1.278A2.575,2.575,0,0,0,167.184-4a2.053,2.053,0,0,0,.918.666,4.228,4.228,0,0,0,1.53.234h1.908a.934.934,0,0,1,.684.288.934.934,0,0,1,.288.684V-.972a.934.934,0,0,1-.288.684A.934.934,0,0,1,171.54,0h-2.268q-3.132,0-4.536-1.62a6.944,6.944,0,0,1-1.4-4.68v-9.324h-2.664a.934.934,0,0,1-.684-.288.934.934,0,0,1-.288-.684v-1.152a.934.934,0,0,1,.288-.684.934.934,0,0,1,.684-.288h2.664v-5.868a.934.934,0,0,1,.288-.684.934.934,0,0,1,.684-.288h1.332a.934.934,0,0,1,.684.288.934.934,0,0,1,.288.684v5.868h4.572a.934.934,0,0,1,.684.288.934.934,0,0,1,.288.684V-16.6a.934.934,0,0,1-.288.684.934.934,0,0,1-.684.288h-4.572Zm12.78,5.328a.934.934,0,0,1-.288.684.934.934,0,0,1-.684.288h-1.332a.934.934,0,0,1-.684-.288.934.934,0,0,1-.288-.684V-17.748a.934.934,0,0,1,.288-.684.934.934,0,0,1,.684-.288h1.332a.934.934,0,0,1,.684.288.934.934,0,0,1,.288.684Zm.36-21.564a.934.934,0,0,1-.288.684.934.934,0,0,1-.684.288h-2.052a.934.934,0,0,1-.684-.288.934.934,0,0,1-.288-.684v-2.052a.934.934,0,0,1,.288-.684.934.934,0,0,1,.684-.288h2.052a.934.934,0,0,1,.684.288.934.934,0,0,1,.288.684Zm4.176,11.376a9.49,9.49,0,0,1,.792-3.1,8.766,8.766,0,0,1,1.692-2.52,7.438,7.438,0,0,1,2.5-1.692,8.341,8.341,0,0,1,3.258-.612,9.055,9.055,0,0,1,3.474.63,7.163,7.163,0,0,1,2.61,1.818,8.1,8.1,0,0,1,1.656,2.88,11.681,11.681,0,0,1,.576,3.78V-9a.934.934,0,0,1-.288.684.934.934,0,0,1-.684.288H187.128v.216a5.084,5.084,0,0,0,1.494,3.762,5.026,5.026,0,0,0,3.546,1.314,6.211,6.211,0,0,0,2.97-.558,6.227,6.227,0,0,0,1.6-1.242,2.093,2.093,0,0,1,.5-.4,1.5,1.5,0,0,1,.648-.108h1.08a1.058,1.058,0,0,1,.72.288.7.7,0,0,1,.252.684,3.828,3.828,0,0,1-.612,1.422,5.372,5.372,0,0,1-1.458,1.44A8.749,8.749,0,0,1,195.5-.09a11.069,11.069,0,0,1-3.33.45,8,8,0,0,1-3.24-.63A7.781,7.781,0,0,1,186.426-2a8.622,8.622,0,0,1-1.71-2.592,10.219,10.219,0,0,1-.792-3.258A15.281,15.281,0,0,1,183.924-11.16Zm3.2.108h10.116v-.108a4.609,4.609,0,0,0-1.386-3.51,5.142,5.142,0,0,0-3.69-1.314,5.428,5.428,0,0,0-1.944.342,4.862,4.862,0,0,0-1.584.972,4.533,4.533,0,0,0-1.08,1.53,5.31,5.31,0,0,0-.432,1.98Zm27.216-7.668a.934.934,0,0,1,.684.288.934.934,0,0,1,.288.684V-16.6a.934.934,0,0,1-.288.684.934.934,0,0,1-.684.288h-2.088q-4.14,0-4.14,4.14V-.972a.934.934,0,0,1-.288.684.934.934,0,0,1-.684.288h-1.332a.934.934,0,0,1-.684-.288.934.934,0,0,1-.288-.684V-17.748a.934.934,0,0,1,.288-.684.934.934,0,0,1,.684-.288h1.332a.934.934,0,0,1,.684.288.934.934,0,0,1,.288.684v1.116a4.508,4.508,0,0,1,1.728-1.584,5.892,5.892,0,0,1,2.628-.5Zm13.608,0a.934.934,0,0,1,.684.288.934.934,0,0,1,.288.684V-16.6a.934.934,0,0,1-.288.684.934.934,0,0,1-.684.288h-2.088q-4.14,0-4.14,4.14V-.972a.934.934,0,0,1-.288.684.934.934,0,0,1-.684.288H219.42a.934.934,0,0,1-.684-.288.934.934,0,0,1-.288-.684V-17.748a.934.934,0,0,1,.288-.684.934.934,0,0,1,.684-.288h1.332a.934.934,0,0,1,.684.288.934.934,0,0,1,.288.684v1.116a4.508,4.508,0,0,1,1.728-1.584,5.892,5.892,0,0,1,2.628-.5Zm2.844,7.56a9.49,9.49,0,0,1,.792-3.1,8.766,8.766,0,0,1,1.692-2.52,7.438,7.438,0,0,1,2.5-1.692,8.341,8.341,0,0,1,3.258-.612,9.055,9.055,0,0,1,3.474.63,7.163,7.163,0,0,1,2.61,1.818,8.1,8.1,0,0,1,1.656,2.88,11.681,11.681,0,0,1,.576,3.78V-9a.934.934,0,0,1-.288.684.934.934,0,0,1-.684.288H234v.216a5.084,5.084,0,0,0,1.494,3.762,5.026,5.026,0,0,0,3.546,1.314,6.211,6.211,0,0,0,2.97-.558,6.227,6.227,0,0,0,1.6-1.242,2.093,2.093,0,0,1,.5-.4,1.5,1.5,0,0,1,.648-.108h1.08a1.058,1.058,0,0,1,.72.288.7.7,0,0,1,.252.684,3.828,3.828,0,0,1-.612,1.422,5.372,5.372,0,0,1-1.458,1.44A8.749,8.749,0,0,1,242.37-.09a11.069,11.069,0,0,1-3.33.45,8,8,0,0,1-3.24-.63A7.781,7.781,0,0,1,233.3-2a8.622,8.622,0,0,1-1.71-2.592,10.219,10.219,0,0,1-.792-3.258A15.281,15.281,0,0,1,230.8-11.16Zm3.2.108h10.116v-.108a4.609,4.609,0,0,0-1.386-3.51,5.142,5.142,0,0,0-3.69-1.314,5.428,5.428,0,0,0-1.944.342,4.862,4.862,0,0,0-1.584.972,4.533,4.533,0,0,0-1.08,1.53A5.31,5.31,0,0,0,234-11.16ZM265.1-3.1a.934.934,0,0,1,.684.288.934.934,0,0,1,.288.684V-.972a.934.934,0,0,1-.288.684A.934.934,0,0,1,265.1,0H251.5a.934.934,0,0,1-.684-.288.934.934,0,0,1-.288-.684v-1.4a1.083,1.083,0,0,1,.126-.522,2.935,2.935,0,0,1,.378-.522l9.9-12.2h-9.072a.934.934,0,0,1-.684-.288.934.934,0,0,1-.288-.684v-1.152a.934.934,0,0,1,.288-.684.934.934,0,0,1,.684-.288h12.528a.934.934,0,0,1,.684.288.934.934,0,0,1,.288.684v1.4a.875.875,0,0,1-.162.54q-.162.216-.342.5L254.88-3.1Zm7.956-1.26a.934.934,0,0,1,.684.288.934.934,0,0,1,.288.684V-.972a.934.934,0,0,1-.288.684A.934.934,0,0,1,273.06,0h-2.412a.934.934,0,0,1-.684-.288.934.934,0,0,1-.288-.684V-3.384a.934.934,0,0,1,.288-.684.934.934,0,0,1,.684-.288ZM285.948-19.08a7.073,7.073,0,0,1,3.564.774,6.742,6.742,0,0,1,2.016,1.674v-7.956a.934.934,0,0,1,.288-.684.934.934,0,0,1,.684-.288h1.332a.934.934,0,0,1,.684.288.934.934,0,0,1,.288.684V-.972a.934.934,0,0,1-.288.684.934.934,0,0,1-.684.288H292.5a.934.934,0,0,1-.684-.288.934.934,0,0,1-.288-.684V-2.088a6.291,6.291,0,0,1-2.052,1.71,7.271,7.271,0,0,1-3.528.738,8.269,8.269,0,0,1-3.15-.594,7.351,7.351,0,0,1-2.538-1.71,8.411,8.411,0,0,1-1.728-2.7,10.933,10.933,0,0,1-.756-3.564q-.036-.54-.036-1.17t.036-1.17a10.933,10.933,0,0,1,.756-3.564,8.2,8.2,0,0,1,1.728-2.682,7.474,7.474,0,0,1,2.538-1.692A8.269,8.269,0,0,1,285.948-19.08Zm5.58,11.268q.036-.54.036-1.422t-.036-1.422A5.6,5.6,0,0,0,290-14.6a5.063,5.063,0,0,0-3.69-1.386,4.8,4.8,0,0,0-3.744,1.512,6.448,6.448,0,0,0-1.512,4.1q-.036,1.008,0,2.016a6.448,6.448,0,0,0,1.512,4.1,4.8,4.8,0,0,0,3.744,1.512A5.116,5.116,0,0,0,289.98-4.1,5.224,5.224,0,0,0,291.528-7.812Zm7.812-3.348a9.491,9.491,0,0,1,.792-3.1,8.766,8.766,0,0,1,1.692-2.52,7.438,7.438,0,0,1,2.5-1.692,8.341,8.341,0,0,1,3.258-.612,9.056,9.056,0,0,1,3.474.63,7.163,7.163,0,0,1,2.61,1.818,8.1,8.1,0,0,1,1.656,2.88,11.681,11.681,0,0,1,.576,3.78V-9a.934.934,0,0,1-.288.684.934.934,0,0,1-.684.288H302.544v.216a5.084,5.084,0,0,0,1.494,3.762,5.026,5.026,0,0,0,3.546,1.314,6.21,6.21,0,0,0,2.97-.558,6.226,6.226,0,0,0,1.6-1.242,2.092,2.092,0,0,1,.5-.4,1.5,1.5,0,0,1,.648-.108h1.08a1.058,1.058,0,0,1,.72.288.7.7,0,0,1,.252.684,3.827,3.827,0,0,1-.612,1.422,5.373,5.373,0,0,1-1.458,1.44A8.749,8.749,0,0,1,310.914-.09a11.069,11.069,0,0,1-3.33.45,8,8,0,0,1-3.24-.63A7.781,7.781,0,0,1,301.842-2a8.622,8.622,0,0,1-1.71-2.592,10.22,10.22,0,0,1-.792-3.258A15.281,15.281,0,0,1,299.34-11.16Zm3.2.108H312.66v-.108a4.609,4.609,0,0,0-1.386-3.51,5.142,5.142,0,0,0-3.69-1.314,5.428,5.428,0,0,0-1.944.342,4.862,4.862,0,0,0-1.584.972,4.533,4.533,0,0,0-1.08,1.53,5.309,5.309,0,0,0-.432,1.98Zm28.368,5.868a1.7,1.7,0,0,0-.378-1.134,2.989,2.989,0,0,0-1.134-.774,12.693,12.693,0,0,0-1.926-.612q-1.17-.288-2.718-.612a7,7,0,0,1-4.086-2.034,5.082,5.082,0,0,1-1.17-3.33,5,5,0,0,1,.432-2.052,4.967,4.967,0,0,1,1.3-1.728,6.2,6.2,0,0,1,2.178-1.188,9.875,9.875,0,0,1,3.078-.432,10.71,10.71,0,0,1,3.078.4,8.056,8.056,0,0,1,2.214,1.008,4.965,4.965,0,0,1,1.368,1.314,2.727,2.727,0,0,1,.5,1.35.8.8,0,0,1-.27.684,1,1,0,0,1-.7.288h-1.188a1.9,1.9,0,0,1-.522-.09,1.119,1.119,0,0,1-.558-.414,3.519,3.519,0,0,0-1.386-1.026,6.312,6.312,0,0,0-2.538-.414,5.19,5.19,0,0,0-2.682.612,1.886,1.886,0,0,0-1.026,1.692,1.888,1.888,0,0,0,.288,1.1,2.3,2.3,0,0,0,.936.72,8.924,8.924,0,0,0,1.71.558q1.062.252,2.646.612a11.892,11.892,0,0,1,2.772.918,6.622,6.622,0,0,1,1.8,1.26,4.1,4.1,0,0,1,.972,1.548,5.492,5.492,0,0,1,.288,1.782,4.486,4.486,0,0,1-.522,2.088,5.338,5.338,0,0,1-1.494,1.764,7.947,7.947,0,0,1-2.358,1.224,9.823,9.823,0,0,1-3.15.468,10.4,10.4,0,0,1-3.132-.432,9.614,9.614,0,0,1-2.34-1.062A5.376,5.376,0,0,1,319.7-2.5a2.707,2.707,0,0,1-.558-1.386.821.821,0,0,1,.252-.684.977.977,0,0,1,.72-.288h1.3a2.781,2.781,0,0,1,.5.054.9.9,0,0,1,.54.414,3.715,3.715,0,0,0,1.584,1.224,6.747,6.747,0,0,0,2.628.432,6.892,6.892,0,0,0,1.566-.18,5.4,5.4,0,0,0,1.368-.5,3.1,3.1,0,0,0,.954-.774A1.549,1.549,0,0,0,330.912-5.184ZM341.748-.972a.934.934,0,0,1-.288.684.934.934,0,0,1-.684.288h-1.332a.934.934,0,0,1-.684-.288.934.934,0,0,1-.288-.684V-17.748a.934.934,0,0,1,.288-.684.934.934,0,0,1,.684-.288h1.332a.934.934,0,0,1,.684.288.934.934,0,0,1,.288.684Zm.36-21.564a.934.934,0,0,1-.288.684.934.934,0,0,1-.684.288h-2.052a.934.934,0,0,1-.684-.288.934.934,0,0,1-.288-.684v-2.052a.934.934,0,0,1,.288-.684.934.934,0,0,1,.684-.288h2.052a.934.934,0,0,1,.684.288.934.934,0,0,1,.288.684Zm4.14,11.988A10.933,10.933,0,0,1,347-14.112a8.2,8.2,0,0,1,1.728-2.682,7.474,7.474,0,0,1,2.538-1.692,8.269,8.269,0,0,1,3.15-.594,7.073,7.073,0,0,1,3.564.774A6.742,6.742,0,0,1,360-16.632v-1.116a.934.934,0,0,1,.288-.684.934.934,0,0,1,.684-.288H362.3a.935.935,0,0,1,.684.288.934.934,0,0,1,.288.684v17.5a8.246,8.246,0,0,1-2.124,5.958Q359.028,7.92,354.78,7.92a11.554,11.554,0,0,1-3.69-.519,8.3,8.3,0,0,1-2.52-1.306,5.44,5.44,0,0,1-1.476-1.718,4.261,4.261,0,0,1-.522-1.79.793.793,0,0,1,.27-.68,1,1,0,0,1,.7-.286h1.08a1.1,1.1,0,0,1,.666.2,1.883,1.883,0,0,1,.522.766q.108.214.342.588a2.791,2.791,0,0,0,.756.748,4.868,4.868,0,0,0,1.368.641,7.243,7.243,0,0,0,2.142.267,9.946,9.946,0,0,0,2.214-.234,4.9,4.9,0,0,0,1.782-.774,3.556,3.556,0,0,0,1.17-1.44A5.235,5.235,0,0,0,360,.18V-2.088a6.291,6.291,0,0,1-2.052,1.71A7.271,7.271,0,0,1,354.42.36a8.269,8.269,0,0,1-3.15-.594,7.474,7.474,0,0,1-2.538-1.692A8.2,8.2,0,0,1,347-4.608a10.933,10.933,0,0,1-.756-3.564q-.036-.54-.036-1.188T346.248-10.548ZM360-10.656a5.6,5.6,0,0,0-1.53-3.942,5.063,5.063,0,0,0-3.69-1.386,4.8,4.8,0,0,0-3.744,1.512,6.448,6.448,0,0,0-1.512,4.1q-.036,1.008,0,2.016a6.448,6.448,0,0,0,1.512,4.1,4.8,4.8,0,0,0,3.744,1.512,5.027,5.027,0,0,0,3.69-1.4A5.624,5.624,0,0,0,360-8.064q.036-.54.036-1.3T360-10.656ZM385.308-.972a.934.934,0,0,1-.288.684.934.934,0,0,1-.684.288H383a.934.934,0,0,1-.684-.288.934.934,0,0,1-.288-.684v-9.5a5.723,5.723,0,0,0-1.332-4.14,4.936,4.936,0,0,0-3.708-1.368,4.976,4.976,0,0,0-3.654,1.368,5.583,5.583,0,0,0-1.386,4.14v9.5a.934.934,0,0,1-.288.684A.934.934,0,0,1,370.98,0h-1.332a.934.934,0,0,1-.684-.288.934.934,0,0,1-.288-.684V-17.748a.934.934,0,0,1,.288-.684.934.934,0,0,1,.684-.288h1.332a.934.934,0,0,1,.684.288.934.934,0,0,1,.288.684v1.116a6.687,6.687,0,0,1,2.034-1.674,7.093,7.093,0,0,1,3.546-.774,8.6,8.6,0,0,1,3.132.558,7.031,7.031,0,0,1,2.466,1.584,7.113,7.113,0,0,1,1.6,2.538,9.443,9.443,0,0,1,.576,3.384Z" transform="translate(-1.95 26.31)" fill="#fff" stroke="#fff" stroke-width="1.5"/></svg>